<mxfile host="app.diagrams.net" agent="Mozilla/5.0 (Windows NT 10.0; Win64; x64) AppleWebKit/537.36 (KHTML, like Gecko) Chrome/127.0.0.0 Safari/537.36 Edg/127.0.0.0" version="24.7.7">
  <diagram name="PÃ¡gina-1" id="T3uU2hnDVZnTd6Pyak96">
    <mxGraphModel dx="597" dy="725" grid="1" gridSize="10" guides="1" tooltips="1" connect="1" arrows="1" fold="1" page="1" pageScale="1" pageWidth="827" pageHeight="1169" math="0" shadow="0">
      <root>
        <mxCell id="0" />
        <mxCell id="1" parent="0" />
        <mxCell id="e4FmhIV_SsURm_GvvWI_-1" value="Cliente" style="rounded=0;whiteSpace=wrap;html=1;" vertex="1" parent="1">
          <mxGeometry x="60" y="70" width="80" height="30" as="geometry" />
        </mxCell>
        <mxCell id="e4FmhIV_SsURm_GvvWI_-11" style="edgeStyle=orthogonalEdgeStyle;rounded=0;orthogonalLoop=1;jettySize=auto;html=1;exitX=0.75;exitY=0;exitDx=0;exitDy=0;entryX=0;entryY=0.5;entryDx=0;entryDy=0;" edge="1" parent="1" source="e4FmhIV_SsURm_GvvWI_-2" target="e4FmhIV_SsURm_GvvWI_-5">
          <mxGeometry relative="1" as="geometry" />
        </mxCell>
        <mxCell id="e4FmhIV_SsURm_GvvWI_-12" style="edgeStyle=orthogonalEdgeStyle;rounded=0;orthogonalLoop=1;jettySize=auto;html=1;entryX=0;entryY=0.5;entryDx=0;entryDy=0;" edge="1" parent="1" source="e4FmhIV_SsURm_GvvWI_-2" target="e4FmhIV_SsURm_GvvWI_-6">
          <mxGeometry relative="1" as="geometry" />
        </mxCell>
        <mxCell id="e4FmhIV_SsURm_GvvWI_-13" style="edgeStyle=orthogonalEdgeStyle;rounded=0;orthogonalLoop=1;jettySize=auto;html=1;entryX=0;entryY=0.5;entryDx=0;entryDy=0;" edge="1" parent="1" source="e4FmhIV_SsURm_GvvWI_-2" target="e4FmhIV_SsURm_GvvWI_-7">
          <mxGeometry relative="1" as="geometry">
            <Array as="points">
              <mxPoint x="330" y="175" />
              <mxPoint x="330" y="175" />
            </Array>
          </mxGeometry>
        </mxCell>
        <mxCell id="e4FmhIV_SsURm_GvvWI_-2" value="BEMBOS" style="rounded=1;whiteSpace=wrap;html=1;" vertex="1" parent="1">
          <mxGeometry x="200" y="115" width="120" height="60" as="geometry" />
        </mxCell>
        <mxCell id="e4FmhIV_SsURm_GvvWI_-9" style="edgeStyle=orthogonalEdgeStyle;rounded=0;orthogonalLoop=1;jettySize=auto;html=1;entryX=0;entryY=0.5;entryDx=0;entryDy=0;" edge="1" parent="1" source="e4FmhIV_SsURm_GvvWI_-3" target="e4FmhIV_SsURm_GvvWI_-2">
          <mxGeometry relative="1" as="geometry" />
        </mxCell>
        <mxCell id="e4FmhIV_SsURm_GvvWI_-3" value="Tienda" style="rounded=0;whiteSpace=wrap;html=1;" vertex="1" parent="1">
          <mxGeometry x="60" y="115" width="80" height="30" as="geometry" />
        </mxCell>
        <mxCell id="e4FmhIV_SsURm_GvvWI_-10" style="edgeStyle=orthogonalEdgeStyle;rounded=0;orthogonalLoop=1;jettySize=auto;html=1;entryX=0;entryY=0.75;entryDx=0;entryDy=0;" edge="1" parent="1" source="e4FmhIV_SsURm_GvvWI_-4" target="e4FmhIV_SsURm_GvvWI_-2">
          <mxGeometry relative="1" as="geometry" />
        </mxCell>
        <mxCell id="e4FmhIV_SsURm_GvvWI_-4" value="Repartidor" style="rounded=0;whiteSpace=wrap;html=1;" vertex="1" parent="1">
          <mxGeometry x="60" y="175" width="80" height="30" as="geometry" />
        </mxCell>
        <mxCell id="e4FmhIV_SsURm_GvvWI_-5" value="Targeta Credito" style="rounded=0;whiteSpace=wrap;html=1;" vertex="1" parent="1">
          <mxGeometry x="374" y="70" width="80" height="30" as="geometry" />
        </mxCell>
        <mxCell id="e4FmhIV_SsURm_GvvWI_-6" value="Mapa" style="rounded=0;whiteSpace=wrap;html=1;" vertex="1" parent="1">
          <mxGeometry x="374" y="115" width="80" height="30" as="geometry" />
        </mxCell>
        <mxCell id="e4FmhIV_SsURm_GvvWI_-7" value="ERP" style="rounded=0;whiteSpace=wrap;html=1;" vertex="1" parent="1">
          <mxGeometry x="374" y="160" width="80" height="30" as="geometry" />
        </mxCell>
        <mxCell id="e4FmhIV_SsURm_GvvWI_-8" style="edgeStyle=orthogonalEdgeStyle;rounded=0;orthogonalLoop=1;jettySize=auto;html=1;entryX=0.004;entryY=0.149;entryDx=0;entryDy=0;entryPerimeter=0;" edge="1" parent="1" source="e4FmhIV_SsURm_GvvWI_-1" target="e4FmhIV_SsURm_GvvWI_-2">
          <mxGeometry relative="1" as="geometry" />
        </mxCell>
        <mxCell id="e4FmhIV_SsURm_GvvWI_-16" value="" style="rounded=0;whiteSpace=wrap;html=1;" vertex="1" parent="1">
          <mxGeometry x="180" y="365" width="370" height="265" as="geometry" />
        </mxCell>
        <mxCell id="e4FmhIV_SsURm_GvvWI_-17" value="Bembos" style="text;strokeColor=none;fillColor=none;align=left;verticalAlign=middle;spacingLeft=4;spacingRight=4;overflow=hidden;points=[[0,0.5],[1,0.5]];portConstraint=eastwest;rotatable=0;whiteSpace=wrap;html=1;" vertex="1" parent="1">
          <mxGeometry x="320" y="630" width="80" height="30" as="geometry" />
        </mxCell>
        <mxCell id="e4FmhIV_SsURm_GvvWI_-18" value="APP" style="rounded=0;whiteSpace=wrap;html=1;" vertex="1" parent="1">
          <mxGeometry x="210" y="380" width="70" height="30" as="geometry" />
        </mxCell>
        <mxCell id="e4FmhIV_SsURm_GvvWI_-19" value="WEB" style="rounded=0;whiteSpace=wrap;html=1;" vertex="1" parent="1">
          <mxGeometry x="320" y="380" width="70" height="30" as="geometry" />
        </mxCell>
        <mxCell id="e4FmhIV_SsURm_GvvWI_-20" value="BD" style="rounded=0;whiteSpace=wrap;html=1;" vertex="1" parent="1">
          <mxGeometry x="454" y="576" width="70" height="30" as="geometry" />
        </mxCell>
        <mxCell id="e4FmhIV_SsURm_GvvWI_-21" value="BACKEND" style="rounded=0;whiteSpace=wrap;html=1;" vertex="1" parent="1">
          <mxGeometry x="220" y="525" width="160" height="90" as="geometry" />
        </mxCell>
        <mxCell id="e4FmhIV_SsURm_GvvWI_-22" value="API GET WAY" style="rounded=0;whiteSpace=wrap;html=1;" vertex="1" parent="1">
          <mxGeometry x="220" y="470" width="160" height="30" as="geometry" />
        </mxCell>
        <mxCell id="e4FmhIV_SsURm_GvvWI_-23" value="DISPLAY" style="rounded=0;whiteSpace=wrap;html=1;" vertex="1" parent="1">
          <mxGeometry x="470" y="380" width="70" height="30" as="geometry" />
        </mxCell>
        <mxCell id="e4FmhIV_SsURm_GvvWI_-30" value="Tienda" style="rounded=0;whiteSpace=wrap;html=1;" vertex="1" parent="1">
          <mxGeometry x="465" y="300" width="80" height="30" as="geometry" />
        </mxCell>
        <mxCell id="e4FmhIV_SsURm_GvvWI_-31" value="Cliente" style="rounded=0;whiteSpace=wrap;html=1;" vertex="1" parent="1">
          <mxGeometry x="260" y="290" width="80" height="30" as="geometry" />
        </mxCell>
        <mxCell id="e4FmhIV_SsURm_GvvWI_-32" value="Targeta Credito" style="rounded=0;whiteSpace=wrap;html=1;" vertex="1" parent="1">
          <mxGeometry x="89" y="523" width="80" height="30" as="geometry" />
        </mxCell>
        <mxCell id="e4FmhIV_SsURm_GvvWI_-33" value="Mapa" style="rounded=0;whiteSpace=wrap;html=1;" vertex="1" parent="1">
          <mxGeometry x="90" y="380" width="80" height="30" as="geometry" />
        </mxCell>
        <mxCell id="e4FmhIV_SsURm_GvvWI_-34" value="ERP" style="rounded=0;whiteSpace=wrap;html=1;" vertex="1" parent="1">
          <mxGeometry x="89" y="578" width="80" height="30" as="geometry" />
        </mxCell>
        <mxCell id="e4FmhIV_SsURm_GvvWI_-42" value="Repartidor" style="rounded=0;whiteSpace=wrap;html=1;" vertex="1" parent="1">
          <mxGeometry x="90" y="330" width="80" height="30" as="geometry" />
        </mxCell>
        <mxCell id="e4FmhIV_SsURm_GvvWI_-45" value="" style="endArrow=none;html=1;rounded=0;exitX=0.5;exitY=1;exitDx=0;exitDy=0;entryX=0.5;entryY=0;entryDx=0;entryDy=0;" edge="1" parent="1" source="e4FmhIV_SsURm_GvvWI_-31" target="e4FmhIV_SsURm_GvvWI_-19">
          <mxGeometry width="50" height="50" relative="1" as="geometry">
            <mxPoint x="380" y="340" as="sourcePoint" />
            <mxPoint x="430" y="290" as="targetPoint" />
          </mxGeometry>
        </mxCell>
        <mxCell id="e4FmhIV_SsURm_GvvWI_-46" value="" style="endArrow=none;html=1;rounded=0;exitX=0.5;exitY=1;exitDx=0;exitDy=0;entryX=0.5;entryY=0;entryDx=0;entryDy=0;" edge="1" parent="1" source="e4FmhIV_SsURm_GvvWI_-31" target="e4FmhIV_SsURm_GvvWI_-18">
          <mxGeometry width="50" height="50" relative="1" as="geometry">
            <mxPoint x="310" y="330" as="sourcePoint" />
            <mxPoint x="365" y="390" as="targetPoint" />
          </mxGeometry>
        </mxCell>
        <mxCell id="e4FmhIV_SsURm_GvvWI_-47" value="" style="endArrow=none;html=1;rounded=0;exitX=1;exitY=0.5;exitDx=0;exitDy=0;entryX=0.25;entryY=0;entryDx=0;entryDy=0;" edge="1" parent="1" source="e4FmhIV_SsURm_GvvWI_-42" target="e4FmhIV_SsURm_GvvWI_-18">
          <mxGeometry width="50" height="50" relative="1" as="geometry">
            <mxPoint x="320" y="340" as="sourcePoint" />
            <mxPoint x="375" y="400" as="targetPoint" />
          </mxGeometry>
        </mxCell>
        <mxCell id="e4FmhIV_SsURm_GvvWI_-48" value="" style="endArrow=none;html=1;rounded=0;exitX=1;exitY=0.5;exitDx=0;exitDy=0;entryX=0;entryY=0.5;entryDx=0;entryDy=0;" edge="1" parent="1" source="e4FmhIV_SsURm_GvvWI_-33" target="e4FmhIV_SsURm_GvvWI_-18">
          <mxGeometry width="50" height="50" relative="1" as="geometry">
            <mxPoint x="330" y="350" as="sourcePoint" />
            <mxPoint x="210" y="395" as="targetPoint" />
          </mxGeometry>
        </mxCell>
        <mxCell id="e4FmhIV_SsURm_GvvWI_-50" value="" style="endArrow=none;html=1;rounded=0;exitX=0.5;exitY=1;exitDx=0;exitDy=0;entryX=0.5;entryY=0;entryDx=0;entryDy=0;" edge="1" parent="1" target="e4FmhIV_SsURm_GvvWI_-23">
          <mxGeometry width="50" height="50" relative="1" as="geometry">
            <mxPoint x="505" y="330" as="sourcePoint" />
            <mxPoint x="560" y="390" as="targetPoint" />
          </mxGeometry>
        </mxCell>
        <mxCell id="e4FmhIV_SsURm_GvvWI_-51" value="" style="endArrow=none;html=1;rounded=0;exitX=1;exitY=0.5;exitDx=0;exitDy=0;entryX=0.5;entryY=1;entryDx=0;entryDy=0;" edge="1" parent="1" source="e4FmhIV_SsURm_GvvWI_-22" target="e4FmhIV_SsURm_GvvWI_-23">
          <mxGeometry width="50" height="50" relative="1" as="geometry">
            <mxPoint x="320" y="340" as="sourcePoint" />
            <mxPoint x="375" y="400" as="targetPoint" />
          </mxGeometry>
        </mxCell>
        <mxCell id="e4FmhIV_SsURm_GvvWI_-52" value="" style="endArrow=none;html=1;rounded=0;exitX=0.5;exitY=1;exitDx=0;exitDy=0;entryX=0.5;entryY=0;entryDx=0;entryDy=0;" edge="1" parent="1" source="e4FmhIV_SsURm_GvvWI_-19" target="e4FmhIV_SsURm_GvvWI_-22">
          <mxGeometry width="50" height="50" relative="1" as="geometry">
            <mxPoint x="330" y="350" as="sourcePoint" />
            <mxPoint x="385" y="410" as="targetPoint" />
          </mxGeometry>
        </mxCell>
        <mxCell id="e4FmhIV_SsURm_GvvWI_-54" value="" style="endArrow=none;html=1;rounded=0;exitX=0.5;exitY=1;exitDx=0;exitDy=0;entryX=0.5;entryY=0;entryDx=0;entryDy=0;" edge="1" parent="1" source="e4FmhIV_SsURm_GvvWI_-18" target="e4FmhIV_SsURm_GvvWI_-22">
          <mxGeometry width="50" height="50" relative="1" as="geometry">
            <mxPoint x="365" y="420" as="sourcePoint" />
            <mxPoint x="310" y="480" as="targetPoint" />
          </mxGeometry>
        </mxCell>
        <mxCell id="e4FmhIV_SsURm_GvvWI_-55" value="" style="endArrow=none;html=1;rounded=0;exitX=0.5;exitY=0;exitDx=0;exitDy=0;entryX=0.5;entryY=1;entryDx=0;entryDy=0;" edge="1" parent="1" source="e4FmhIV_SsURm_GvvWI_-21" target="e4FmhIV_SsURm_GvvWI_-22">
          <mxGeometry width="50" height="50" relative="1" as="geometry">
            <mxPoint x="375" y="430" as="sourcePoint" />
            <mxPoint x="320" y="490" as="targetPoint" />
          </mxGeometry>
        </mxCell>
        <mxCell id="e4FmhIV_SsURm_GvvWI_-56" value="" style="endArrow=none;html=1;rounded=0;exitX=1;exitY=0.5;exitDx=0;exitDy=0;entryX=-0.004;entryY=0.139;entryDx=0;entryDy=0;entryPerimeter=0;" edge="1" parent="1" source="e4FmhIV_SsURm_GvvWI_-32" target="e4FmhIV_SsURm_GvvWI_-21">
          <mxGeometry width="50" height="50" relative="1" as="geometry">
            <mxPoint x="385" y="440" as="sourcePoint" />
            <mxPoint x="220" y="548" as="targetPoint" />
          </mxGeometry>
        </mxCell>
        <mxCell id="e4FmhIV_SsURm_GvvWI_-58" value="" style="endArrow=none;html=1;rounded=0;exitX=1;exitY=0.5;exitDx=0;exitDy=0;entryX=0;entryY=0.75;entryDx=0;entryDy=0;" edge="1" parent="1" source="e4FmhIV_SsURm_GvvWI_-34" target="e4FmhIV_SsURm_GvvWI_-21">
          <mxGeometry width="50" height="50" relative="1" as="geometry">
            <mxPoint x="180" y="565" as="sourcePoint" />
            <mxPoint x="230" y="566" as="targetPoint" />
          </mxGeometry>
        </mxCell>
        <mxCell id="e4FmhIV_SsURm_GvvWI_-59" value="" style="endArrow=none;html=1;rounded=0;exitX=1;exitY=0.75;exitDx=0;exitDy=0;entryX=0;entryY=0.5;entryDx=0;entryDy=0;" edge="1" parent="1" source="e4FmhIV_SsURm_GvvWI_-21" target="e4FmhIV_SsURm_GvvWI_-20">
          <mxGeometry width="50" height="50" relative="1" as="geometry">
            <mxPoint x="190" y="575" as="sourcePoint" />
            <mxPoint x="240" y="576" as="targetPoint" />
          </mxGeometry>
        </mxCell>
        <mxCell id="e4FmhIV_SsURm_GvvWI_-60" value="" style="rounded=0;whiteSpace=wrap;html=1;fillColor=#52FF80;" vertex="1" parent="1">
          <mxGeometry x="210" y="840" width="220" height="200" as="geometry" />
        </mxCell>
        <mxCell id="e4FmhIV_SsURm_GvvWI_-61" value="" style="rounded=0;whiteSpace=wrap;html=1;fillColor=#CC0000;" vertex="1" parent="1">
          <mxGeometry x="310" y="840" width="120" height="80" as="geometry" />
        </mxCell>
        <mxCell id="e4FmhIV_SsURm_GvvWI_-62" value="" style="rounded=0;whiteSpace=wrap;html=1;fillColor=#435ACC;" vertex="1" parent="1">
          <mxGeometry x="310" y="920" width="120" height="80" as="geometry" />
        </mxCell>
        <mxCell id="e4FmhIV_SsURm_GvvWI_-63" value="Vista A" style="text;html=1;align=center;verticalAlign=middle;whiteSpace=wrap;rounded=0;" vertex="1" parent="1">
          <mxGeometry x="335" y="865" width="60" height="30" as="geometry" />
        </mxCell>
        <mxCell id="e4FmhIV_SsURm_GvvWI_-64" value="Vista B" style="text;html=1;align=center;verticalAlign=middle;whiteSpace=wrap;rounded=0;" vertex="1" parent="1">
          <mxGeometry x="335" y="945" width="60" height="30" as="geometry" />
        </mxCell>
        <mxCell id="e4FmhIV_SsURm_GvvWI_-66" style="edgeStyle=orthogonalEdgeStyle;rounded=0;orthogonalLoop=1;jettySize=auto;html=1;entryX=1;entryY=0.5;entryDx=0;entryDy=0;" edge="1" parent="1" source="e4FmhIV_SsURm_GvvWI_-65" target="e4FmhIV_SsURm_GvvWI_-63">
          <mxGeometry relative="1" as="geometry" />
        </mxCell>
        <mxCell id="e4FmhIV_SsURm_GvvWI_-65" value="Interesado 1" style="rounded=1;whiteSpace=wrap;html=1;" vertex="1" parent="1">
          <mxGeometry x="470" y="855" width="85" height="50" as="geometry" />
        </mxCell>
        <mxCell id="e4FmhIV_SsURm_GvvWI_-68" style="edgeStyle=orthogonalEdgeStyle;rounded=0;orthogonalLoop=1;jettySize=auto;html=1;entryX=1;entryY=0.5;entryDx=0;entryDy=0;" edge="1" parent="1" source="e4FmhIV_SsURm_GvvWI_-67" target="e4FmhIV_SsURm_GvvWI_-64">
          <mxGeometry relative="1" as="geometry" />
        </mxCell>
        <mxCell id="e4FmhIV_SsURm_GvvWI_-67" value="Interesado 2" style="rounded=1;whiteSpace=wrap;html=1;" vertex="1" parent="1">
          <mxGeometry x="470" y="935" width="85" height="50" as="geometry" />
        </mxCell>
        <mxCell id="e4FmhIV_SsURm_GvvWI_-69" value="Arquitectura" style="text;html=1;align=center;verticalAlign=middle;whiteSpace=wrap;rounded=0;" vertex="1" parent="1">
          <mxGeometry x="230" y="905" width="60" height="30" as="geometry" />
        </mxCell>
      </root>
    </mxGraphModel>
  </diagram>
</mxfile>
